<svg width="332" height="194" viewBox="0 0 332 194" fill="none" xmlns="http://www.w3.org/2000/svg">
<path fill-rule="evenodd" clip-rule="evenodd" d="M319.831 53.2909C321.053 42.4684 323.029 31.7454 325.751 21.1906C325.791 21.8446 325.814 22.4719 325.84 23.0307C326.327 33.483 323.611 43.5797 319.831 53.2909ZM306.742 58.424C306.887 58.2588 306.991 58.1031 307.035 57.965C308.123 54.5949 309.21 51.2249 310.298 47.8549C309.843 51.6776 309.389 55.4996 308.935 59.3218C308.842 60.0968 311.829 59.0391 313.637 57.8099C313.41 59.9623 313.212 62.1185 313.044 64.278C310.963 62.3692 308.842 60.423 306.742 58.424ZM288.838 35.9531C289.52 35.6095 290.21 35.1866 290.766 34.7489C291.855 37.5164 292.943 40.2847 294.032 43.0522C294.219 43.5212 295.665 43.124 297.094 42.4164C298.125 45.1421 298.933 47.9506 299.51 50.843C299.621 51.3991 300.799 50.9774 302.066 50.3017C301.909 51.3232 301.771 52.3469 301.646 53.3732C296.563 48.0886 291.958 42.3713 288.838 35.9531ZM297.854 31.3878C297.568 31.4989 297.264 31.6433 296.955 31.8074C296.324 30.2044 295.693 28.6005 295.062 26.9973C296.17 28.3595 297.077 29.8373 297.854 31.3878ZM319.878 14.5436C320.653 13.5359 320.182 13.657 321.584 13.8764C322.696 14.0506 323.499 14.5755 324.093 15.3016C323.059 15.8402 321.838 16.626 321.499 17.6145C320.473 20.5978 319.478 23.5907 318.503 26.59C318.764 24.3933 319.025 22.1962 319.287 19.9997C319.355 19.418 317.908 19.8122 316.412 20.5278C317.059 19.2083 317.748 17.9056 318.5 16.6457C318.928 15.928 319.367 15.207 319.878 14.5436ZM329.699 11.393C327.135 8.96533 323.143 10.1621 320.399 11.5805C316.555 13.5678 314.041 16.6052 311.99 20.3519C309.606 24.7073 307.68 29.2673 306.214 33.9722C304.403 28.4572 302.021 23.2194 297.033 19.8095C294.016 17.7469 290.233 16.6881 286.634 17.7139C283.249 18.6781 279.226 21.1419 279.026 25.0032C278.585 33.517 283.913 42.3213 288.901 48.783C295.163 56.8931 302.878 63.827 310.363 70.7763C310.998 71.3659 312.56 70.7029 313.936 69.8005C315.595 69.2394 318.358 67.4578 318.707 66.7061C322.987 57.4891 327.252 48.1626 329.774 38.2836C330.968 33.6078 331.758 28.8157 331.893 23.9869C331.993 20.4257 332.536 14.0804 329.699 11.393Z" fill="#A4ACBD"/>
<path fill-rule="evenodd" clip-rule="evenodd" d="M93.1937 82.6778C93.9773 75.7585 95.2451 68.9028 96.9912 62.1547C97.0167 62.5728 97.0314 62.9739 97.0481 63.3311C97.3606 70.0137 95.6183 76.469 93.1937 82.6778ZM84.7969 85.9596C84.89 85.854 84.9563 85.7545 84.9849 85.6662C85.6826 83.5115 86.3803 81.3569 87.0776 79.2023C86.7863 81.6463 86.4946 84.0899 86.2035 86.5336C86.1442 87.0291 88.0598 86.3529 89.2201 85.567C89.0741 86.9431 88.9472 88.3217 88.8394 89.7023C87.5044 88.482 86.1438 87.2376 84.7969 85.9596ZM73.311 71.5929C73.7487 71.3733 74.1911 71.1029 74.548 70.8231C75.2464 72.5925 75.9447 74.3623 76.6431 76.1317C76.7632 76.4316 77.6908 76.1776 78.6072 75.7253C79.2687 77.4679 79.7869 79.2635 80.1574 81.1128C80.2287 81.4683 80.9841 81.1986 81.7971 80.7667C81.6964 81.4198 81.6077 82.0742 81.5276 82.7304C78.2667 79.3517 75.3125 75.6964 73.311 71.5929ZM79.0951 68.6742C78.9115 68.7452 78.7164 68.8375 78.5181 68.9425C78.1135 67.9176 77.7089 66.8921 77.3042 65.8671C78.0146 66.738 78.5963 67.6828 79.0951 68.6742ZM93.2237 57.9049C93.7211 57.2607 93.4188 57.3381 94.3182 57.4783C95.0315 57.5897 95.5464 57.9253 95.9278 58.3895C95.2642 58.7339 94.4808 59.2363 94.2632 59.8683C93.6054 61.7756 92.9668 63.6892 92.3415 65.6067C92.509 64.2023 92.6765 62.7976 92.8443 61.3933C92.8883 61.0214 91.96 61.2734 90.9999 61.7309C91.4152 60.8872 91.8573 60.0544 92.3394 59.2489C92.614 58.79 92.8958 58.3291 93.2237 57.9049ZM99.5236 55.8906C97.8789 54.3385 95.3181 55.1037 93.558 56.0105C91.0917 57.2811 89.4791 59.223 88.1632 61.6184C86.6338 64.403 85.3984 67.3184 84.4578 70.3265C83.2965 66.8005 81.7681 63.4518 78.5686 61.2717C76.6332 59.9529 74.2062 59.276 71.8975 59.9318C69.7256 60.5483 67.1448 62.1235 67.0164 64.5922C66.7337 70.0354 70.1514 75.6644 73.3519 79.7957C77.3687 84.9808 82.3177 89.414 87.1196 93.857C87.5272 94.234 88.5289 93.8101 89.4115 93.2331C90.4763 92.8744 92.2483 91.7353 92.4724 91.2547C95.2181 85.3619 97.9539 79.399 99.5717 73.083C100.338 70.0935 100.845 67.0297 100.932 63.9425C100.995 61.6656 101.344 57.6088 99.5236 55.8906Z" fill="#8898AE" fill-opacity="0.756863"/>
<path fill-rule="evenodd" clip-rule="evenodd" d="M312.194 182.678C312.977 175.758 314.245 168.903 315.991 162.155C316.017 162.573 316.031 162.974 316.048 163.331C316.361 170.014 314.618 176.469 312.194 182.678ZM303.797 185.96C303.89 185.854 303.956 185.754 303.985 185.666C304.683 183.511 305.38 181.357 306.078 179.202C305.786 181.646 305.495 184.09 305.203 186.534C305.144 187.029 307.06 186.353 308.22 185.567C308.074 186.943 307.947 188.322 307.839 189.702C306.504 188.482 305.144 187.238 303.797 185.96ZM292.311 171.593C292.749 171.373 293.191 171.103 293.548 170.823C294.246 172.592 294.945 174.362 295.643 176.132C295.763 176.432 296.691 176.178 297.607 175.725C298.269 177.468 298.787 179.263 299.157 181.113C299.229 181.468 299.984 181.199 300.797 180.767C300.696 181.42 300.608 182.074 300.528 182.73C297.267 179.352 294.313 175.696 292.311 171.593ZM298.095 168.674C297.912 168.745 297.716 168.838 297.518 168.942C297.113 167.918 296.709 166.892 296.304 165.867C297.015 166.738 297.596 167.683 298.095 168.674ZM312.224 157.905C312.721 157.261 312.419 157.338 313.318 157.478C314.031 157.59 314.546 157.925 314.928 158.39C314.264 158.734 313.481 159.236 313.263 159.868C312.605 161.776 311.967 163.689 311.341 165.607C311.509 164.202 311.676 162.798 311.844 161.393C311.888 161.021 310.96 161.273 310 161.731C310.415 160.887 310.857 160.054 311.339 159.249C311.614 158.79 311.896 158.329 312.224 157.905ZM318.524 155.891C316.879 154.338 314.318 155.104 312.558 156.01C310.092 157.281 308.479 159.223 307.163 161.618C305.634 164.403 304.398 167.318 303.458 170.326C302.296 166.8 300.768 163.452 297.569 161.272C295.633 159.953 293.206 159.276 290.897 159.932C288.726 160.548 286.145 162.123 286.016 164.592C285.734 170.035 289.151 175.664 292.352 179.796C296.369 184.981 301.318 189.414 306.12 193.857C306.527 194.234 307.529 193.81 308.411 193.233C309.476 192.874 311.248 191.735 311.472 191.255C314.218 185.362 316.954 179.399 318.572 173.083C319.338 170.094 319.845 167.03 319.932 163.942C319.995 161.666 320.344 157.609 318.524 155.891Z" fill="#FFA8E4"/>
<path fill-rule="evenodd" clip-rule="evenodd" d="M268.618 133.802C272.615 128.389 276.985 123.262 281.702 118.455C281.521 118.818 281.339 119.16 281.181 119.467C278.213 125.21 273.64 129.774 268.618 133.802ZM260.029 132.505C260.158 132.462 260.261 132.41 260.328 132.35C261.951 130.883 263.574 129.416 265.196 127.948C263.772 129.853 262.349 131.758 260.925 133.663C260.636 134.049 262.561 134.405 263.908 134.307C263.121 135.388 262.349 136.48 261.592 137.584C261.069 135.92 260.535 134.223 260.029 132.505ZM257.391 114.951C257.862 114.978 258.362 114.965 258.795 114.902C258.522 116.72 258.249 118.537 257.977 120.354C257.932 120.663 258.829 120.897 259.812 120.96C259.521 122.737 259.086 124.489 258.501 126.215C258.389 126.547 259.149 126.685 260.036 126.715C259.637 127.213 259.247 127.718 258.863 128.228C257.775 123.831 257.078 119.349 257.391 114.951ZM263.625 115.294C263.438 115.265 263.231 115.248 263.015 115.24C263.172 114.188 263.33 113.135 263.488 112.082C263.66 113.153 263.688 114.224 263.625 115.294ZM280.613 113.085C281.339 112.785 281.049 112.704 281.732 113.255C282.273 113.691 282.54 114.22 282.634 114.792C281.914 114.761 281.018 114.804 280.531 115.228C279.061 116.508 277.604 117.802 276.156 119.105C276.974 118.011 277.792 116.916 278.611 115.821C278.827 115.531 277.931 115.295 276.909 115.216C277.663 114.71 278.435 114.226 279.226 113.784C279.677 113.532 280.134 113.282 280.613 113.085ZM286.84 114.433C286.219 112.342 283.713 111.749 281.807 111.66C279.136 111.536 276.853 112.385 274.598 113.756C271.977 115.349 269.538 117.194 267.3 119.259C268.035 115.749 268.378 112.21 266.763 108.845C265.786 106.81 264.089 105.074 261.846 104.512C259.737 103.982 256.823 104.057 255.523 106.061C252.658 110.48 252.788 116.837 253.462 121.835C254.307 128.109 256.292 134.202 258.151 140.233C258.308 140.745 259.349 140.872 260.364 140.814C261.425 141.027 263.453 140.927 263.873 140.633C269.01 137.023 274.173 133.35 278.574 128.844C280.657 126.711 282.56 124.391 284.124 121.849C285.278 119.974 287.529 116.747 286.84 114.433Z" fill="#FFA8E4"/>
<path fill-rule="evenodd" clip-rule="evenodd" d="M64.1986 137.847C63.197 131.193 62.6618 124.478 62.5983 117.744C62.7266 118.128 62.8406 118.498 62.9455 118.828C64.9076 124.987 64.9013 131.447 64.1986 137.847ZM57.2082 143.003C57.2684 142.881 57.3051 142.772 57.3097 142.682C57.4199 140.497 57.53 138.312 57.6399 136.127C57.98 138.481 58.3199 140.835 58.6603 143.188C58.7291 143.666 60.3419 142.557 61.2248 141.534C61.4331 142.855 61.6599 144.173 61.9049 145.489C60.3578 144.683 58.7809 143.86 57.2082 143.003ZM42.9301 132.456C43.2823 132.142 43.6263 131.779 43.8882 131.429C44.9805 132.907 46.0728 134.385 47.165 135.862C47.3517 136.112 48.1511 135.644 48.8905 134.993C49.9417 136.455 50.8729 138.002 51.68 139.635C51.8353 139.95 52.4705 139.51 53.1188 138.904C53.1885 139.538 53.2697 140.171 53.3592 140.804C49.4807 138.463 45.8183 135.787 42.9301 132.456ZM47.5808 128.29C47.4278 128.402 47.2693 128.537 47.1112 128.684C46.4784 127.828 45.8456 126.972 45.2128 126.116C46.0914 126.752 46.8688 127.489 47.5808 128.29ZM58.0307 114.716C58.3322 113.991 58.0704 114.138 58.9421 114.045C59.6336 113.971 60.1965 114.156 60.6674 114.494C60.1362 114.981 59.5331 115.645 59.4888 116.29C59.3539 118.234 59.2383 120.179 59.1362 122.125C58.9408 120.772 58.7453 119.419 58.5502 118.067C58.4981 117.709 57.6976 118.175 56.9189 118.842C57.0942 117.951 57.2972 117.063 57.5442 116.191C57.6848 115.694 57.8317 115.194 58.0307 114.716ZM63.3874 111.266C61.4692 110.227 59.2784 111.579 57.8679 112.864C55.8913 114.665 54.8769 116.88 54.2518 119.444C53.5255 122.424 53.1055 125.453 52.9828 128.495C51.0206 125.494 48.7612 122.749 45.2396 121.512C43.1093 120.763 40.6823 120.736 38.6986 121.924C36.8324 123.041 34.8255 125.154 35.3235 127.491C36.4219 132.642 41.0092 137.044 45.0197 140.102C50.0533 143.941 55.7658 146.845 61.3441 149.796C61.8176 150.046 62.6434 149.401 63.3202 148.642C64.2209 148.042 65.5845 146.537 65.6728 146.032C66.7532 139.848 67.8068 133.6 67.7322 127.301C67.697 124.32 67.4023 121.334 66.7111 118.43C66.201 116.289 65.5107 112.415 63.3874 111.266Z" fill="#BDBACD"/>
<path fill-rule="evenodd" clip-rule="evenodd" d="M40.8313 43.2909C42.0528 32.4684 44.0292 21.7454 46.751 11.1906C46.7908 11.8446 46.8137 12.4719 46.8398 13.0307C47.3268 23.483 44.6109 33.5797 40.8313 43.2909ZM27.7422 48.424C27.8874 48.2588 27.9906 48.1031 28.0353 47.965C29.1229 44.5949 30.2104 41.2249 31.2975 37.8549C30.8433 41.6776 30.3886 45.4996 29.9349 49.3218C29.8425 50.0968 32.8285 49.0391 34.6372 47.8099C34.4096 49.9623 34.2118 52.1185 34.0437 54.278C31.9628 52.3692 29.8419 50.423 27.7422 48.424ZM9.83768 25.9531C10.52 25.6095 11.2097 25.1866 11.7659 24.7489C12.8547 27.5164 13.9432 30.2847 15.0319 33.0522C15.219 33.5212 16.665 33.124 18.0935 32.4164C19.1247 35.1421 19.9326 37.9506 20.5101 40.843C20.6212 41.3991 21.7987 40.9774 23.0661 40.3017C22.9091 41.3232 22.7709 42.3469 22.6459 43.3732C17.5628 38.0886 12.9578 32.3713 9.83768 25.9531ZM18.8541 21.3878C18.568 21.4989 18.2637 21.6433 17.9547 21.8074C17.324 20.2044 16.6932 18.6005 16.0625 16.9973C17.1697 18.3595 18.0765 19.8373 18.8541 21.3878ZM40.8782 4.54358C41.6535 3.5359 41.1822 3.65696 42.5842 3.87636C43.6962 4.05058 44.4987 4.5755 45.0933 5.3016C44.0589 5.84022 42.8378 6.62595 42.4986 7.61451C41.4732 10.5978 40.4776 13.5907 39.5029 16.59C39.764 14.3933 40.0251 12.1962 40.2868 9.99971C40.3554 9.41801 38.9083 9.81223 37.4117 10.5278C38.059 9.20825 38.7482 7.90558 39.4997 6.64568C39.9277 5.92801 40.367 5.20703 40.8782 4.54358ZM50.6985 1.39299C48.1347 -1.03467 44.143 0.16215 41.3993 1.58047C37.5547 3.56782 35.041 6.60517 32.9897 10.3519C30.6056 14.7073 28.6799 19.2673 27.2137 23.9722C25.4033 18.4572 23.0208 13.2194 18.0334 9.80952C15.0164 7.74688 11.2332 6.68814 7.6343 7.7139C4.24875 8.67806 0.225669 11.1419 0.0256133 15.0032C-0.415178 23.517 4.9125 32.3213 9.90145 38.783C16.163 46.8931 23.8775 53.827 31.3629 60.7763C31.9984 61.3659 33.5598 60.7029 34.9356 59.8005C36.5953 59.2394 39.3577 57.4578 39.707 56.7061C43.9871 47.4891 48.2517 38.1626 50.7736 28.2836C51.9675 23.6078 52.7578 18.8157 52.8934 13.9869C52.9928 10.4257 53.5364 4.08039 50.6985 1.39299Z" fill="#FF72BF"/>
</svg>
