<svg width="78" height="127" viewBox="0 0 78 127" fill="none" xmlns="http://www.w3.org/2000/svg">
<path fill-rule="evenodd" clip-rule="evenodd" d="M25.1336 12.4807H14.445V15.7498H25.1336V12.4807ZM25.0614 24.1412H17.0537C11.5461 24.1412 7.0531 19.6368 7.0531 14.1153C7.0531 8.5574 11.5461 4.053 17.0537 4.053H25.1336V0.783899H17.0537C13.5026 0.783899 10.2055 2.16428 7.66902 4.67047C5.16913 7.21339 3.79224 10.5553 3.79224 14.1153C3.79224 17.6749 5.16913 20.9808 7.66902 23.5233C10.2055 26.0299 13.5026 27.4103 17.0537 27.4103H25.0614V19.0553H21.8365V24.1412H25.0614ZM41.6562 0.747559L39.8807 4.64029L29.3006 27.4103H32.8878L41.6562 8.49707L43.468 4.64029L41.6562 0.747559ZM45.2435 8.53305L43.468 12.3898L50.3887 27.4103H53.9757L45.2435 8.53305ZM65.0996 19.0553L69.8098 27.4103H73.5782L68.7953 18.9466L65.0996 19.0553ZM66.3314 0.783899H57.3453V4.053H66.3314C68.6502 4.053 70.4983 5.90576 70.4983 8.23051V8.30322C70.4983 10.5916 68.6502 12.4807 66.3314 12.4807H60.6065H57.3453V15.7498V27.4103H60.6065V15.7498H66.3314C70.3895 15.7498 73.7591 12.3716 73.7591 8.30322V8.23051C73.7591 4.12576 70.3895 0.783899 66.3314 0.783899Z" fill="#1B1918"/>
<path fill-rule="evenodd" clip-rule="evenodd" d="M18.7567 63.7353H25.0978C28.6485 63.7353 32.0181 62.3549 34.5183 59.8483C37.0549 57.3058 38.4317 53.9999 38.4317 50.4403C38.4317 46.8803 37.0549 43.5384 34.5183 40.9955C32.0181 38.4893 28.6485 37.1089 25.0978 37.1089H18.7567V40.378H25.0978C30.6775 40.378 35.1705 44.8824 35.1705 50.4403C35.1705 55.9618 30.6775 60.4662 25.0978 60.4662H18.7567V63.7353ZM60.6066 37.1089H42.9607V40.378H60.6066V37.1089ZM60.6066 60.4662H42.9607V63.7353H60.6066V60.4662ZM53.5046 48.8057H42.9607V52.0748H53.5046V48.8057Z" fill="#1B1918"/>
<path fill-rule="evenodd" clip-rule="evenodd" d="M13.1588 91.7052L17.8691 100.06H21.6374L16.8546 91.5965L13.1588 91.7052ZM14.3906 73.4338H5.40454V76.703H14.3906C16.7094 76.703 18.5575 78.5557 18.5575 80.8804V80.9532C18.5575 83.2415 16.7094 85.1306 14.3906 85.1306H8.66576H5.40454V88.3997V100.06H8.66576V88.3997H14.3906C18.4487 88.3997 21.8184 85.0215 21.8184 80.9532V80.8804C21.8184 76.7757 18.4487 73.4338 14.3906 73.4338ZM38.5945 100.06C42.1452 100.06 45.4427 98.6798 47.9426 96.1733C50.4791 93.6671 51.8922 90.2889 51.8922 86.7652C51.8922 83.2052 50.4791 79.827 47.9426 77.3204C45.4427 74.8142 42.1452 73.4338 38.5945 73.4338C35.0073 73.4338 31.7101 74.8142 29.2099 77.3204C26.71 79.827 25.3331 83.2052 25.3331 86.7652C25.3331 90.2889 26.71 93.6671 29.2099 96.1733C31.7101 98.6798 35.0073 100.06 38.5945 100.06ZM38.5945 76.703C44.1383 76.703 48.631 81.171 48.631 86.7652C48.631 92.2867 44.1383 96.7911 38.5945 96.7911C33.0507 96.7911 28.594 92.2867 28.594 86.7652C28.594 81.171 33.0507 76.703 38.5945 76.703ZM73.5963 80.9532V80.8804C73.5963 76.7757 70.2988 73.4338 66.1681 73.4338H57.2188V76.6666H66.1681C68.4874 76.6666 70.4076 78.5557 70.4076 80.8804V80.9532C70.4076 83.2415 68.4874 85.1306 66.1681 85.1306H60.4433H57.2188V88.3634V96.8271V100.024V100.06H66.1681C70.2988 100.06 73.5963 96.7184 73.5963 92.5772V92.5409C73.5963 90.1798 72.5092 88.1092 70.8063 86.7288C72.5092 85.3848 73.5963 83.2779 73.5963 80.9532ZM70.4076 92.5409V92.5772C70.4076 94.902 68.4874 96.8271 66.1681 96.8271H60.4433V88.3634H66.1681C68.4874 88.3634 70.4076 90.2162 70.4076 92.5409Z" fill="#1B1918"/>
<path fill-rule="evenodd" clip-rule="evenodd" d="M0.0547806 116.23C0.0547806 115.198 0.299608 114.406 0.790017 113.854C1.28043 113.302 2.01566 113.026 2.99608 113.026C3.9765 113.026 4.7121 113.302 5.20215 113.854C5.69256 114.406 5.93774 115.198 5.93774 116.23V116.721H4.04941V116.102C4.04941 115.641 3.96163 115.317 3.7861 115.129C3.61053 114.941 3.36535 114.846 3.05051 114.846C2.73602 114.846 2.4908 114.941 2.31527 115.129C2.1397 115.317 2.05192 115.641 2.05192 116.102C2.05192 116.539 2.14879 116.925 2.34248 117.258C2.53614 117.592 2.77811 117.907 3.06864 118.205C3.35916 118.502 3.6711 118.799 4.00372 119.097C4.33668 119.394 4.64827 119.719 4.9388 120.071C5.22936 120.423 5.47165 120.823 5.66534 121.272C5.85904 121.721 5.95587 122.249 5.95587 122.856C5.95587 123.888 5.70454 124.679 5.20215 125.232C4.6998 125.784 3.95838 126.06 2.97796 126.06C1.99753 126.06 1.25611 125.784 0.753761 125.232C0.251373 124.679 0 123.888 0 122.856V121.982H1.88833V122.984C1.88833 123.445 1.9823 123.766 2.16981 123.948C2.35772 124.13 2.60869 124.221 2.92353 124.221C3.23837 124.221 3.48939 124.13 3.6769 123.948C3.8648 123.766 3.95837 123.445 3.95837 122.984C3.95837 122.546 3.86155 122.161 3.66785 121.828C3.47415 121.494 3.23222 121.178 2.94166 120.881C2.65114 120.584 2.33955 120.286 2.00658 119.989C1.67361 119.692 1.36202 119.367 1.0715 119.015C0.780974 118.663 0.538644 118.263 0.344948 117.814C0.151648 117.365 0.0547806 116.837 0.0547806 116.23ZM17.4773 113.172H23.6508V114.992H21.5626V125.914H19.5651V114.992H17.4773V113.172ZM37.3145 122.984C37.3145 123.445 37.4084 123.769 37.5959 123.957C37.7838 124.145 38.0349 124.24 38.3497 124.24C38.6642 124.24 38.9155 124.145 39.1031 123.957C39.2906 123.769 39.3845 123.445 39.3845 122.984V116.102C39.3845 115.641 39.2906 115.317 39.1031 115.129C38.9155 114.941 38.6642 114.846 38.3497 114.846C38.0349 114.846 37.7838 114.941 37.5959 115.129C37.4084 115.317 37.3145 115.641 37.3145 116.102V122.984ZM35.3174 116.23C35.3174 115.198 35.5774 114.406 36.0979 113.854C36.6184 113.302 37.3689 113.026 38.3497 113.026C39.3301 113.026 40.0806 113.302 40.6011 113.854C41.1216 114.406 41.382 115.198 41.382 116.23V122.856C41.382 123.888 41.1216 124.679 40.6011 125.232C40.0806 125.784 39.3301 126.06 38.3497 126.06C37.3689 126.06 36.6184 125.784 36.0979 125.232C35.5774 124.679 35.3174 123.888 35.3174 122.856V116.23ZM57.7694 125.914C57.7451 125.829 57.7207 125.75 57.6968 125.677C57.6725 125.605 57.6515 125.514 57.633 125.404C57.6148 125.295 57.6029 125.156 57.5967 124.986C57.5909 124.816 57.5876 124.604 57.5876 124.349V122.346C57.5876 121.752 57.485 121.333 57.279 121.09C57.0733 120.848 56.7403 120.726 56.2804 120.726H55.5905V125.914H53.593V113.172H56.6072C57.6482 113.172 58.402 113.414 58.8677 113.9C59.3338 114.385 59.567 115.119 59.567 116.102V117.104C59.567 118.414 59.131 119.276 58.2598 119.689C58.7679 119.895 59.1161 120.232 59.3037 120.699C59.4912 121.166 59.5851 121.733 59.5851 122.401V124.367C59.5851 124.682 59.5971 124.958 59.6214 125.195C59.6457 125.432 59.7063 125.672 59.8031 125.914H57.7694ZM55.5905 114.992V118.906H56.3711C56.7465 118.906 57.0399 118.809 57.2518 118.614C57.4636 118.42 57.5695 118.069 57.5695 117.559V116.303C57.5695 115.842 57.4879 115.508 57.3243 115.302C57.1611 115.095 56.9039 114.992 56.5528 114.992H55.5905ZM73.8121 118.542H76.5539V120.362H73.8121V124.094H77.2619V125.914H71.8146V113.172H77.2619V114.992H73.8121V118.542Z" fill="#1B1918"/>
</svg>
