<svg width="40" height="39" viewBox="0 0 40 39" fill="none" xmlns="http://www.w3.org/2000/svg">
<path d="M0 11.7459C0.129687 10.83 0.228496 9.90887 0.393337 8.99963C1.32775 3.84967 4.97371 0.345746 10.1869 0.166179C16.4636 -0.0494911 22.7594 -0.0608921 29.0352 0.165229C34.7091 0.369498 38.8183 4.57079 38.9954 10.2466C39.184 16.2735 39.184 22.3151 38.9954 28.342C38.8183 34.0178 34.7105 38.2187 29.0357 38.4234C22.7599 38.65 16.4627 38.6557 10.1873 38.4201C4.51245 38.2068 0.58953 33.996 0.20997 28.3116C0.177192 27.8199 0.0717317 27.3325 0 26.8433C0 21.8106 0 16.778 0 11.7459ZM19.5737 35.0596C22.4458 35.0596 25.3208 35.1456 28.1891 35.0397C32.6864 34.8729 35.4526 32.1889 35.5575 27.696C35.6877 22.0976 35.6877 16.4916 35.5575 10.8927C35.4526 6.40066 32.6845 3.65396 28.1891 3.55847C22.4834 3.43781 16.7714 3.43876 11.0657 3.55847C6.60454 3.65206 3.83028 6.34318 3.70915 10.7858C3.55523 16.455 3.55523 22.1341 3.70915 27.8033C3.83028 32.2455 6.60454 34.8744 11.0662 35.0397C13.8984 35.1451 16.7377 35.0596 19.5737 35.0596Z" fill="#333333"/>
<path d="M19.5681 9.32507C14.0604 9.32507 9.59497 13.79 9.59497 19.2977C9.59497 24.8058 14.0604 29.2707 19.5681 29.2707C25.0762 29.2707 29.5411 24.8058 29.5411 19.2977C29.5411 13.79 25.0762 9.32507 19.5681 9.32507ZM19.5681 25.8371C15.9563 25.8371 13.0286 22.9094 13.0286 19.2977C13.0286 15.6859 15.9563 12.7582 19.5681 12.7582C23.1798 12.7582 26.1075 15.6859 26.1075 19.2977C26.1075 22.9094 23.1798 25.8371 19.5681 25.8371Z" fill="#333333"/>
<path d="M32.4955 8.86989C32.4955 10.1801 31.4333 11.2423 30.1232 11.2423C28.813 11.2423 27.7503 10.1801 27.7503 8.86989C27.7503 7.55924 28.813 6.49704 30.1232 6.49704C31.4333 6.49704 32.4955 7.55924 32.4955 8.86989Z" fill="#333333"/>
</svg>
