<svg width="30" height="31" viewBox="0 0 30 31" fill="none" xmlns="http://www.w3.org/2000/svg">
<path d="M28.2012 13.6409L16.5343 13.6773V1.85877C16.5343 0.82899 15.732 0 14.7355 0C13.7392 0 12.9367 0.82899 12.9367 1.85877L12.9719 13.6412H1.79881C0.802249 13.6412 0 14.4702 0 15.5C0 16.5294 0.802249 17.3584 1.79881 17.3584H12.9543V29.1412C12.9543 30.1703 13.7565 31 14.7531 31C15.7497 31 16.5519 30.1703 16.5519 29.1412V17.3588H28.2012C29.1978 17.3588 30 16.5291 30 15.5C30 14.4699 29.1888 13.6409 28.2012 13.6409Z" fill="#333333"/>
</svg>
