<svg width="36" height="36" viewBox="0 0 36 36" fill="none" xmlns="http://www.w3.org/2000/svg">
<path d="M31.0184 25.0562C28.8436 23.1961 26.6366 22.0694 24.4885 23.9267L23.2058 25.0492C22.2674 25.864 20.5225 29.6712 13.7763 21.9107C7.03149 14.16 11.0452 12.9532 11.9851 12.1454L13.2748 11.0215C15.4116 9.16001 14.6052 6.81667 13.064 4.4045L12.134 2.94342C10.5858 0.536868 8.89997 -1.04362 6.75753 0.815034L5.59992 1.82655C4.65303 2.51634 2.00624 4.75853 1.36421 9.01812C0.591526 14.1291 3.02899 19.9818 8.61338 26.4035C14.1907 32.828 19.6515 36.055 24.8243 35.9988C29.1232 35.9524 31.7194 33.6456 32.5314 32.8069L33.6933 31.794C35.8301 29.9368 34.5025 28.0458 32.3263 26.1815L31.0184 25.0562Z" fill="#333333"/>
</svg>
