<svg width="263" height="10" viewBox="0 0 263 10" fill="none" xmlns="http://www.w3.org/2000/svg">
<path d="M88.0004 4.93368V4.93368C92.8571 7.8886 98.9562 7.8886 103.813 4.93368V4.93368V4.93368C108.651 1.91438 114.787 1.91438 119.625 4.93368V4.93368V4.93368C123.787 7.82568 129.308 7.82568 133.469 4.93368V4.93368V4.93368C137.612 1.98118 143.171 1.98118 147.313 4.93368V4.93368V4.93368C151.474 7.82568 156.995 7.82568 161.157 4.93368V4.93368V4.93368C165.299 1.98118 170.858 1.98118 175 4.93368V4.93368" stroke="#6F6065" stroke-width="2.44381"/>
<path d="M175 4.93368V4.93368C179.856 7.8886 185.955 7.8886 190.812 4.93368V4.93368V4.93368C195.65 1.91438 201.786 1.91438 206.625 4.93368V4.93368V4.93368C210.786 7.82568 216.307 7.82568 220.468 4.93368V4.93368V4.93368C224.611 1.98118 230.17 1.98118 234.312 4.93368V4.93368V4.93368C238.474 7.82568 243.994 7.82568 248.156 4.93368V4.93368V4.93368C252.298 1.98118 257.857 1.98118 262 4.93368V4.93368" stroke="#6F6065" stroke-width="2.44381"/>
<path d="M1 4.93398V4.93398C5.8567 7.8889 11.9558 7.8889 16.8125 4.93398V4.93398V4.93398C21.651 1.91468 27.7866 1.91469 32.625 4.93398V4.93398V4.93398C36.7865 7.82599 42.3073 7.82599 46.4688 4.93398V4.93398V4.93398C50.6111 1.98148 56.1703 1.98148 60.3126 4.93398V4.93398V4.93398C64.4741 7.82599 69.9949 7.82599 74.1564 4.93398V4.93398V4.93398C78.2987 1.98148 83.8578 1.98148 88.0001 4.93398V4.93398" stroke="#6F6065" stroke-width="2.44381"/>
</svg>
