<svg width="166" height="30" viewBox="0 0 166 30" fill="none" xmlns="http://www.w3.org/2000/svg">
<path fill-rule="evenodd" clip-rule="evenodd" d="M25.5064 4.35974C22.6998 1.5498 18.9672 0.00164795 14.9907 0C6.79669 0 0.127991 6.66852 0.124695 14.8647C0.123596 17.4847 0.808044 20.0424 2.10901 22.2967L0 30L7.88068 27.9327C10.0521 29.1172 12.4968 29.7415 14.9846 29.7422H14.9908C23.1839 29.7422 29.8533 23.0731 29.8564 14.8766C29.8581 10.9043 28.3132 7.16949 25.5064 4.35974ZM14.9907 27.2316H14.9855C12.7685 27.2307 10.5941 26.6349 8.69678 25.5093L8.24579 25.2415L3.56927 26.4683L4.8175 21.9087L4.52362 21.4413C3.28674 19.474 2.63361 17.2002 2.6347 14.8656C2.63727 8.05316 8.18024 2.51074 14.9956 2.51074C18.2959 2.51184 21.3983 3.79871 23.731 6.13422C26.0638 8.46973 27.3477 11.5741 27.3466 14.8757C27.3437 21.6887 21.8011 27.2316 14.9907 27.2316ZM21.7681 17.9777C21.3968 17.7916 19.5705 16.8933 19.2299 16.7692C18.8897 16.6452 18.6418 16.5835 18.3944 16.9552C18.1467 17.3269 17.4349 18.1637 17.2181 18.4114C17.0013 18.6594 16.7849 18.6905 16.4134 18.5045C16.0419 18.3186 14.8451 17.9262 13.4262 16.6608C12.3221 15.6758 11.5767 14.4595 11.3599 14.0878C11.1434 13.7157 11.358 13.5341 11.5228 13.3297C11.9249 12.8304 12.3276 12.3069 12.4514 12.0591C12.5753 11.8112 12.5132 11.5942 12.4202 11.4084C12.3276 11.2225 11.5847 9.39422 11.2753 8.65027C10.9735 7.92627 10.6675 8.02405 10.4394 8.01269C10.223 8.00189 9.97522 7.99969 9.72748 7.99969C9.47992 7.99969 9.07745 8.09253 8.73688 8.4646C8.39648 8.83649 7.43701 9.73498 7.43701 11.5633C7.43701 13.3916 8.768 15.1578 8.95367 15.4058C9.13934 15.6537 11.573 19.4055 15.299 21.0143C16.1852 21.3973 16.877 21.6257 17.4166 21.7969C18.3065 22.0796 19.116 22.0397 19.7562 21.9441C20.4699 21.8373 21.9536 21.0454 22.2634 20.1779C22.5729 19.3101 22.5729 18.5665 22.4799 18.4114C22.3872 18.2565 22.1395 18.1637 21.7681 17.9777Z" fill="#333333"/>
<path d="M56.0545 14.7356C56.8279 15.029 57.4345 15.469 57.8745 16.0556C58.3145 16.6423 58.5345 17.3156 58.5345 18.0756C58.5345 18.9423 58.2412 19.6956 57.6545 20.3356C57.0679 20.9756 56.2745 21.469 55.2745 21.8156C54.2745 22.149 53.1745 22.3156 51.9745 22.3156C51.0279 22.3156 50.0612 22.2023 49.0745 21.9756C48.1012 21.749 47.1679 21.409 46.2745 20.9556L47.4545 18.1956C48.0812 18.5156 48.7479 18.7623 49.4545 18.9356C50.1745 19.0956 50.8679 19.1756 51.5345 19.1756C52.4145 19.1756 53.1345 19.0356 53.6945 18.7556C54.2545 18.4623 54.5345 18.0556 54.5345 17.5356C54.5345 17.1223 54.3612 16.8156 54.0145 16.6156C53.6679 16.4156 53.2012 16.3156 52.6145 16.3156H49.0345V13.4156H52.2945C52.8279 13.4156 53.2412 13.309 53.5345 13.0956C53.8279 12.8823 53.9745 12.5956 53.9745 12.2356C53.9745 11.7823 53.7479 11.4356 53.2945 11.1956C52.8412 10.9423 52.2545 10.8156 51.5345 10.8156C50.9479 10.8156 50.3279 10.9023 49.6745 11.0756C49.0212 11.2356 48.4012 11.469 47.8145 11.7756L46.6545 8.77562C48.1479 8.05562 49.7879 7.69562 51.5745 7.69562C52.7212 7.69562 53.7812 7.86229 54.7545 8.19562C55.7412 8.51562 56.5212 8.98229 57.0945 9.59562C57.6812 10.209 57.9745 10.9356 57.9745 11.7756C57.9745 12.429 57.8012 13.0156 57.4545 13.5356C57.1212 14.0423 56.6545 14.4423 56.0545 14.7356ZM70.7358 19.2956H64.8158L63.7158 22.0156H59.6758L65.8558 8.01562H69.7558L75.9558 22.0156H71.8358L70.7358 19.2956ZM69.5758 16.3756L67.7758 11.8956L65.9758 16.3756H69.5758ZM83.6202 16.6556H81.8202V22.0156H77.8802V8.01562H81.8202V13.4556H83.7202L87.0602 8.01562H91.2202L86.8402 14.7756L91.2602 22.0156H86.8002L83.6202 16.6556ZM102.258 19.2956H96.3384L95.2384 22.0156H91.1984L97.3784 8.01562H101.278L107.478 22.0156H103.358L102.258 19.2956ZM101.098 16.3756L99.2984 11.8956L97.4984 16.3756H101.098ZM118.143 14.7356C118.916 15.029 119.523 15.469 119.963 16.0556C120.403 16.6423 120.623 17.3156 120.623 18.0756C120.623 18.9423 120.329 19.6956 119.743 20.3356C119.156 20.9756 118.363 21.469 117.363 21.8156C116.363 22.149 115.263 22.3156 114.063 22.3156C113.116 22.3156 112.149 22.2023 111.163 21.9756C110.189 21.749 109.256 21.409 108.363 20.9556L109.543 18.1956C110.169 18.5156 110.836 18.7623 111.543 18.9356C112.263 19.0956 112.956 19.1756 113.623 19.1756C114.503 19.1756 115.223 19.0356 115.783 18.7556C116.343 18.4623 116.623 18.0556 116.623 17.5356C116.623 17.1223 116.449 16.8156 116.103 16.6156C115.756 16.4156 115.289 16.3156 114.703 16.3156H111.123V13.4156H114.383C114.916 13.4156 115.329 13.309 115.623 13.0956C115.916 12.8823 116.063 12.5956 116.063 12.2356C116.063 11.7823 115.836 11.4356 115.383 11.1956C114.929 10.9423 114.343 10.8156 113.623 10.8156C113.036 10.8156 112.416 10.9023 111.763 11.0756C111.109 11.2356 110.489 11.469 109.903 11.7756L108.743 8.77562C110.236 8.05562 111.876 7.69562 113.663 7.69562C114.809 7.69562 115.869 7.86229 116.843 8.19562C117.829 8.51562 118.609 8.98229 119.183 9.59562C119.769 10.209 120.063 10.9356 120.063 11.7756C120.063 12.429 119.889 13.0156 119.543 13.5356C119.209 14.0423 118.743 14.4423 118.143 14.7356ZM132.824 19.2956H126.904L125.804 22.0156H121.764L127.944 8.01562H131.844L138.044 22.0156H133.924L132.824 19.2956ZM131.664 16.3756L129.864 11.8956L128.064 16.3756H131.664ZM150.625 11.1556H146.345V22.0156H142.445V11.1556H138.145V8.01562H150.625V11.1556ZM159.991 12.4756C161.711 12.4756 163.037 12.8623 163.971 13.6356C164.904 14.3956 165.371 15.529 165.371 17.0356C165.371 18.649 164.851 19.8823 163.811 20.7356C162.771 21.589 161.324 22.0156 159.471 22.0156H152.851V8.01562H156.751V12.4756H159.991ZM159.211 19.1756C159.877 19.1756 160.404 18.9956 160.791 18.6356C161.191 18.2756 161.391 17.769 161.391 17.1156C161.391 15.9023 160.664 15.2956 159.211 15.2956H156.751V19.1756H159.211Z" fill="#333333"/>
</svg>
